<svg xmlns="http://www.w3.org/2000/svg" xmlns:xlink="http://www.w3.org/1999/xlink" width="500" zoomAndPan="magnify" viewBox="0 0 375 374.999991" height="500" preserveAspectRatio="xMidYMid meet" version="1.0"><defs><g/><clipPath id="7d1a0a4cd4"><path d="M 51.289062 9.015625 L 324 9.015625 L 324 273.960938 L 51.289062 273.960938 Z M 51.289062 9.015625 " clip-rule="nonzero"/></clipPath><clipPath id="1aea2a3eae"><path d="M 79.039062 9.015625 L 295.960938 9.015625 C 311.285156 9.015625 323.710938 21.441406 323.710938 36.765625 L 323.710938 246.210938 C 323.710938 261.535156 311.285156 273.960938 295.960938 273.960938 L 79.039062 273.960938 C 63.714844 273.960938 51.289062 261.535156 51.289062 246.210938 L 51.289062 36.765625 C 51.289062 21.441406 63.714844 9.015625 79.039062 9.015625 Z M 79.039062 9.015625 " clip-rule="nonzero"/></clipPath><clipPath id="92430bb98a"><path d="M 90.050781 58.128906 L 285 58.128906 L 285 201 L 90.050781 201 Z M 90.050781 58.128906 " clip-rule="nonzero"/></clipPath></defs><g clip-path="url(#7d1a0a4cd4)"><g clip-path="url(#1aea2a3eae)"><path fill="#e52124" d="M 51.289062 9.015625 L 323.480469 9.015625 L 323.480469 273.960938 L 51.289062 273.960938 Z M 51.289062 9.015625 " fill-opacity="1" fill-rule="nonzero"/></g></g><g clip-path="url(#92430bb98a)"><path fill="#ffffff" d="M 282.1875 81.304688 C 280.386719 80.195312 278.199219 80.375 276.175781 80.210938 C 272.703125 80.015625 269.230469 79.820312 265.757812 79.636719 C 252.804688 78.851562 239.839844 78.207031 226.890625 77.40625 C 188.980469 75.300781 151.078125 73.113281 113.171875 70.984375 C 112.953125 70.972656 112.800781 70.871094 112.726562 70.671875 C 112.566406 70.253906 112.410156 69.828125 112.257812 69.402344 C 111.421875 67.179688 110.789062 64.867188 109.800781 62.699219 C 109.652344 62.398438 109.410156 62.191406 109.085938 62.089844 C 104.46875 60.8125 99.855469 59.472656 95.1875 58.402344 C 93.664062 58.195312 92.148438 59.144531 91.441406 60.46875 C 90.445312 62.320312 90.039062 64.621094 90.832031 66.613281 C 91.199219 67.53125 91.988281 68.070312 92.902344 68.363281 C 95.839844 69.414062 98.769531 70.5 101.71875 71.523438 C 101.914062 71.589844 102.050781 71.726562 102.121094 71.914062 C 109.726562 94.3125 117.113281 116.789062 124.625 139.21875 C 126.289062 144.226562 127.9375 149.242188 129.59375 154.253906 C 130.632812 157 131.09375 160.078125 133.011719 162.390625 C 133.28125 162.710938 133.5625 163.023438 133.839844 163.332031 C 134.109375 163.636719 134.125 163.730469 133.902344 164.097656 C 127.871094 173.503906 121.757812 182.855469 115.714844 192.253906 C 115.273438 192.960938 114.847656 193.710938 114.8125 194.566406 C 114.6875 196.382812 116.082031 197.785156 117.246094 198.996094 C 118.089844 199.804688 119.109375 200.25 120.289062 200.277344 C 143.476562 200.328125 166.667969 200.277344 189.859375 200.296875 C 189.859375 200.300781 189.859375 200.300781 189.859375 200.304688 C 213.179688 200.269531 236.503906 200.367188 259.816406 200.246094 C 260.980469 200.152344 262.007812 199.726562 262.824219 198.875 C 265.109375 196.664062 264.457031 192.519531 261.503906 191.234375 C 217.066406 190.039062 172.269531 191.359375 127.742188 190.785156 C 127.703125 190.769531 127.660156 190.664062 127.675781 190.636719 C 127.953125 190.203125 128.222656 189.765625 128.519531 189.347656 C 132.476562 183.828125 136.4375 178.308594 140.390625 172.78125 C 141.253906 171.441406 142.554688 170.3125 142.929688 168.714844 C 143.007812 168.484375 143.050781 168.054688 143.363281 168.035156 C 144.421875 168.128906 145.476562 168.285156 146.535156 168.339844 C 175.65625 167.441406 204.761719 165.644531 233.867188 164.238281 C 242.789062 163.867188 243.433594 164.039062 247.535156 155.824219 C 255.621094 140.800781 263.738281 125.789062 271.871094 110.785156 C 275.527344 103.980469 279.242188 97.203125 282.902344 90.402344 C 283.53125 89.140625 284.382812 87.941406 284.617188 86.53125 C 284.945312 84.113281 283.59375 82.148438 282.1875 81.304688 Z M 124.367188 103.457031 C 124.128906 103.4375 123.792969 103.46875 123.6875 103.203125 C 123.488281 102.695312 123.289062 102.1875 123.113281 101.667969 C 120.875 95.09375 118.664062 88.507812 116.441406 81.929688 C 116.40625 81.613281 116.835938 81.679688 117.046875 81.695312 C 121.449219 81.921875 125.851562 82.167969 130.25 82.40625 C 131.921875 82.503906 133.585938 82.617188 135.257812 82.722656 C 135.46875 82.734375 135.742188 82.765625 135.824219 82.984375 C 136.175781 87.496094 136.386719 92.039062 136.679688 96.5625 C 136.816406 99 137.027344 101.441406 137.054688 103.882812 C 137.058594 104 136.914062 104.125 136.796875 104.117188 C 134.675781 104.007812 132.554688 103.894531 130.433594 103.789062 C 130.433594 103.777344 130.433594 103.769531 130.4375 103.757812 C 128.414062 103.660156 126.390625 103.558594 124.367188 103.457031 Z M 133.96875 132.238281 C 133.164062 132.367188 133.097656 131.46875 132.847656 130.917969 C 130.675781 123.890625 127.65625 116.609375 125.894531 109.632812 C 127.035156 109.605469 128.210938 109.707031 129.355469 109.789062 C 131.957031 109.957031 134.566406 110.042969 137.164062 110.246094 C 137.273438 110.261719 137.390625 110.390625 137.410156 110.511719 C 137.742188 114.941406 137.921875 119.378906 138.15625 123.816406 C 138.152344 123.816406 138.148438 123.816406 138.148438 123.816406 C 138.285156 126.546875 138.550781 129.273438 138.5625 132.011719 C 138.542969 132.265625 138.226562 132.285156 138.023438 132.285156 C 136.671875 132.269531 135.320312 132.25 133.96875 132.238281 Z M 139.734375 151.144531 C 139.570312 151.332031 139.492188 150.917969 139.433594 150.8125 C 138.085938 146.6875 136.664062 142.585938 135.285156 138.472656 C 135.257812 138.34375 135.390625 138.226562 135.503906 138.222656 C 136.535156 138.234375 137.566406 138.25 138.59375 138.261719 C 139 138.234375 139.089844 138.585938 139.101562 138.921875 C 139.210938 140.945312 139.3125 142.96875 139.421875 144.996094 C 139.429688 144.996094 139.4375 144.996094 139.445312 144.996094 C 139.503906 146.796875 139.621094 148.589844 139.761719 150.386719 C 139.78125 150.636719 139.839844 150.894531 139.734375 151.144531 Z M 218.609375 108.234375 C 219.84375 101.460938 221.078125 94.6875 222.328125 87.917969 C 222.375 87.726562 222.59375 87.636719 222.789062 87.664062 C 225.519531 87.828125 228.246094 88.042969 230.980469 88.164062 C 234.761719 88.433594 238.574219 88.503906 242.347656 88.820312 C 242.421875 88.847656 242.511719 88.964844 242.503906 89.03125 C 242.441406 89.472656 242.371094 89.921875 242.265625 90.355469 C 240.792969 96.785156 239.039062 103.144531 237.476562 109.550781 C 237.4375 109.710938 237.285156 109.832031 237.125 109.824219 C 236.195312 109.789062 235.257812 109.777344 234.328125 109.6875 C 234.328125 109.691406 234.328125 109.699219 234.328125 109.703125 C 229.316406 109.449219 224.304688 109.125 219.289062 108.851562 C 218.828125 108.796875 218.503906 108.828125 218.609375 108.234375 Z M 192.894531 106.816406 C 193.53125 100.050781 194.179688 93.289062 194.804688 86.527344 C 194.820312 86.351562 194.949219 86.230469 195.121094 86.230469 C 196.828125 86.269531 198.535156 86.371094 200.238281 86.453125 C 204.378906 86.78125 208.535156 86.875 212.679688 87.144531 C 213.800781 87.21875 214.929688 87.261719 216.050781 87.363281 C 216.273438 87.382812 216.375 87.53125 216.335938 87.769531 C 215.230469 94.570312 213.953125 101.339844 212.753906 108.121094 C 212.703125 108.351562 212.429688 108.441406 212.210938 108.410156 C 209.09375 108.242188 205.972656 108.105469 202.855469 107.878906 C 202.855469 107.886719 202.855469 107.890625 202.855469 107.898438 C 200.925781 107.78125 199 107.644531 197.066406 107.539062 C 195.8125 107.46875 194.558594 107.398438 193.308594 107.324219 C 192.980469 107.304688 192.878906 107.175781 192.894531 106.816406 Z M 160.722656 142.332031 C 160.535156 147.15625 160.421875 151.984375 160.101562 156.800781 C 160.074219 157.078125 159.957031 157.175781 159.65625 157.1875 C 156.214844 157.328125 152.78125 157.511719 149.34375 157.695312 C 148.441406 157.738281 147.539062 157.761719 146.640625 157.789062 C 146.4375 157.789062 146.128906 157.792969 146.085938 157.539062 C 145.703125 154.28125 145.578125 150.996094 145.375 147.722656 C 145.375 147.722656 145.375 147.722656 145.371094 147.722656 C 145.203125 144.832031 145.03125 141.941406 144.863281 139.050781 C 144.859375 138.816406 144.785156 138.464844 145.109375 138.421875 C 145.882812 138.382812 146.652344 138.414062 147.425781 138.414062 C 151.832031 138.507812 156.242188 138.457031 160.644531 138.636719 C 160.839844 138.699219 160.804688 138.980469 160.8125 139.148438 C 160.789062 140.210938 160.757812 141.269531 160.722656 142.332031 Z M 162.003906 112.425781 C 161.898438 115.644531 161.785156 118.855469 161.667969 122.074219 C 161.660156 122.074219 161.648438 122.074219 161.640625 122.074219 C 161.496094 125.445312 161.316406 128.820312 161.207031 132.195312 C 161.195312 132.417969 161.0625 132.546875 160.839844 132.558594 C 155.4375 132.515625 150.027344 132.519531 144.628906 132.386719 C 144.511719 132.375 144.382812 132.25 144.375 132.132812 C 144.125 129.089844 143.929688 126.035156 143.777344 122.984375 C 143.601562 118.910156 143.167969 114.828125 143.132812 110.753906 C 143.296875 110.363281 144.941406 110.71875 145.375 110.675781 C 149.835938 110.941406 154.300781 111.183594 158.769531 111.394531 C 159.761719 111.457031 160.761719 111.492188 161.753906 111.589844 C 162.121094 111.683594 161.984375 112.144531 162.003906 112.425781 Z M 163.109375 85.160156 C 163.011719 88.410156 162.96875 91.664062 162.789062 94.910156 C 162.789062 94.910156 162.789062 94.910156 162.792969 94.910156 C 162.636719 98.351562 162.519531 101.796875 162.34375 105.234375 C 162.320312 105.625 161.855469 105.570312 161.5625 105.554688 C 155.707031 105.230469 149.859375 104.898438 144.003906 104.589844 C 142.5625 104.507812 142.71875 104.621094 142.644531 103.242188 C 142.5625 101.636719 142.5 100.027344 142.40625 98.417969 C 142.238281 95.554688 142.039062 92.699219 141.894531 89.835938 C 141.8125 88.257812 141.734375 86.683594 141.648438 85.109375 C 141.617188 84.59375 141.566406 84.082031 141.535156 83.566406 C 141.519531 83.269531 141.636719 83.128906 141.914062 83.136719 C 145 83.257812 148.085938 83.457031 151.171875 83.652344 C 155.058594 83.914062 158.960938 83.960938 162.835938 84.324219 C 163.210938 84.410156 163.085938 84.878906 163.109375 85.160156 Z M 182.214844 153.488281 C 182.144531 154.128906 182.070312 154.769531 181.996094 155.40625 C 181.972656 155.710938 181.90625 156.105469 181.523438 156.121094 C 177.511719 156.347656 173.492188 156.503906 169.480469 156.738281 C 168.488281 156.765625 167.488281 156.878906 166.496094 156.835938 C 166 156.777344 166.308594 155.335938 166.253906 154.941406 C 166.402344 150.058594 166.691406 144.707031 166.828125 139.226562 C 166.859375 138.71875 166.945312 138.640625 167.496094 138.644531 C 172.449219 138.800781 177.402344 138.800781 182.355469 138.804688 C 182.75 138.871094 183.675781 138.59375 183.664062 139.195312 C 183.292969 143.96875 182.648438 148.71875 182.214844 153.488281 Z M 186.277344 113.8125 C 185.714844 119.996094 185.113281 126.183594 184.484375 132.363281 C 184.410156 132.703125 184.386719 132.8125 183.988281 132.820312 C 181.253906 132.8125 178.515625 132.785156 175.777344 132.769531 C 175.777344 132.761719 175.777344 132.753906 175.777344 132.75 C 173.167969 132.710938 170.558594 132.671875 167.953125 132.628906 C 167.210938 132.632812 167.164062 132.554688 167.183594 131.878906 C 167.261719 129.273438 167.382812 126.667969 167.480469 124.058594 C 167.578125 120.195312 167.835938 116.339844 167.941406 112.476562 C 167.960938 112.296875 167.949219 112.058594 168.144531 111.980469 C 171.890625 112.042969 175.667969 112.421875 179.425781 112.539062 C 181.640625 112.683594 183.867188 112.742188 186.074219 112.949219 C 186.429688 113.074219 186.277344 113.53125 186.277344 113.8125 Z M 186.957031 106.347656 C 186.957031 106.871094 186.679688 106.96875 186.207031 106.921875 C 180.300781 106.546875 174.378906 106.328125 168.480469 105.90625 C 168.242188 105.851562 168.207031 105.554688 168.222656 105.351562 C 168.386719 102.007812 168.515625 98.664062 168.605469 95.316406 C 168.609375 95.316406 168.613281 95.316406 168.621094 95.316406 C 168.761719 92.394531 168.816406 89.464844 168.960938 86.539062 C 169.0625 84.273438 168.71875 84.644531 170.894531 84.726562 C 173.398438 84.824219 175.902344 85.023438 178.410156 85.179688 C 181.804688 85.417969 185.230469 85.40625 188.613281 85.773438 C 188.941406 85.953125 188.757812 86.441406 188.777344 86.746094 C 188.453125 90.238281 188.144531 93.730469 187.828125 97.222656 C 187.539062 100.261719 187.226562 103.304688 186.957031 106.347656 Z M 206.71875 139.445312 C 205.902344 144.296875 204.957031 149.125 204.089844 153.96875 C 203.96875 154.410156 204.042969 155.183594 203.390625 155.128906 C 198.859375 155.332031 194.328125 155.496094 189.796875 155.757812 C 189.347656 155.777344 188.898438 155.78125 188.445312 155.785156 C 188.28125 155.789062 188.152344 155.640625 188.164062 155.464844 C 188.328125 152.960938 188.691406 150.476562 188.949219 147.980469 C 189.246094 145.230469 189.539062 142.480469 189.789062 139.726562 C 189.820312 139.410156 189.8125 138.90625 190.25 138.921875 C 192.917969 138.882812 195.589844 138.988281 198.261719 139.007812 C 198.261719 139 198.261719 138.996094 198.261719 138.988281 C 200.996094 139.039062 203.734375 138.964844 206.464844 139.101562 C 206.632812 139.113281 206.746094 139.273438 206.71875 139.445312 Z M 208.128906 132.835938 C 208.09375 132.96875 207.980469 133.046875 207.847656 133.058594 C 202.253906 133.0625 196.652344 133.046875 191.058594 132.863281 C 190.59375 132.84375 190.523438 132.757812 190.539062 132.261719 C 190.546875 132.003906 190.558594 131.746094 190.582031 131.492188 C 191.210938 125.511719 191.726562 119.515625 192.359375 113.539062 C 192.496094 113.257812 192.882812 113.378906 193.136719 113.371094 C 195.867188 113.589844 198.601562 113.667969 201.328125 113.863281 C 201.328125 113.851562 201.328125 113.84375 201.332031 113.832031 C 204.632812 114.085938 207.953125 114.128906 211.25 114.453125 C 211.367188 114.464844 211.480469 114.605469 211.472656 114.722656 C 210.953125 118.441406 210.148438 122.128906 209.496094 125.828125 C 208.988281 128.152344 208.644531 130.511719 208.128906 132.835938 Z M 229.140625 139.675781 C 227.808594 144.410156 226.574219 149.175781 225.125 153.878906 C 224.917969 154.3125 224.101562 154.128906 223.6875 154.214844 C 219.542969 154.398438 215.398438 154.59375 211.25 154.800781 C 210.894531 154.804688 210.199219 154.972656 210.3125 154.398438 C 210.511719 153.289062 210.726562 152.183594 210.925781 151.078125 C 211.613281 147.214844 212.277344 143.347656 212.980469 139.488281 C 213.011719 139.320312 213.136719 139.207031 213.3125 139.199219 C 215.917969 139.175781 218.523438 139.253906 221.128906 139.265625 C 221.128906 139.277344 221.128906 139.292969 221.128906 139.304688 C 223.738281 139.34375 226.34375 139.324219 228.949219 139.410156 C 229.074219 139.410156 229.175781 139.554688 229.140625 139.675781 Z M 230.78125 133.394531 C 225.605469 133.4375 220.367188 133.351562 214.84375 133.210938 C 214.613281 133.1875 214.246094 133.257812 214.195312 132.960938 C 215.054688 127.136719 216.308594 121.371094 217.257812 115.558594 C 217.328125 115.296875 217.332031 114.953125 217.628906 114.835938 C 218.648438 114.800781 219.6875 114.917969 220.714844 114.941406 C 225.46875 115.246094 230.234375 115.421875 234.988281 115.734375 C 235.667969 115.777344 235.722656 115.851562 235.5625 116.496094 C 235.277344 117.621094 234.972656 118.738281 234.675781 119.859375 C 233.523438 124.277344 232.304688 128.6875 231.128906 133.101562 C 231.082031 133.273438 230.957031 133.382812 230.78125 133.394531 Z M 243.976562 139.886719 C 241.691406 144.214844 239.273438 148.46875 237.019531 152.816406 C 236.621094 153.570312 236.628906 153.582031 235.769531 153.632812 C 235.125 153.671875 234.480469 153.691406 233.839844 153.722656 C 233.839844 153.71875 233.839844 153.714844 233.839844 153.710938 C 233.164062 153.734375 232.488281 153.761719 231.8125 153.785156 C 231.683594 153.792969 231.558594 153.652344 231.578125 153.542969 C 232.78125 148.902344 234.089844 144.285156 235.417969 139.675781 C 235.460938 139.554688 235.574219 139.472656 235.714844 139.46875 C 237.933594 139.449219 240.15625 139.523438 242.378906 139.546875 C 242.863281 139.554688 243.34375 139.585938 243.828125 139.609375 C 243.96875 139.613281 244.042969 139.753906 243.976562 139.886719 Z M 256.242188 117.230469 C 253.332031 122.605469 250.34375 127.9375 247.449219 133.324219 C 247.238281 133.761719 246.703125 133.601562 246.316406 133.628906 C 244.964844 133.628906 243.613281 133.628906 242.261719 133.628906 C 242.261719 133.621094 242.261719 133.605469 242.261719 133.59375 C 241.007812 133.578125 239.75 133.566406 238.496094 133.542969 C 238.109375 133.535156 237.726562 133.496094 237.339844 133.464844 C 237.226562 133.457031 237.125 133.296875 237.15625 133.171875 C 238.199219 128.957031 239.445312 124.792969 240.585938 120.605469 C 241.003906 119.1875 241.332031 117.742188 241.816406 116.34375 C 241.847656 116.273438 241.957031 116.207031 242.039062 116.1875 C 246.496094 116.273438 250.972656 116.632812 255.4375 116.835938 C 255.714844 116.898438 256.335938 116.792969 256.242188 117.230469 Z M 259.761719 110.761719 C 259.449219 111.398438 258.628906 110.953125 258.078125 111.007812 C 253.738281 110.777344 249.394531 110.570312 245.058594 110.28125 C 243.210938 110.152344 243.363281 110.46875 243.816406 108.597656 C 245.5 102.214844 247.203125 95.839844 248.894531 89.46875 C 249.015625 89.105469 249.445312 89.210938 249.742188 89.214844 C 250.578125 89.261719 251.414062 89.300781 252.25 89.347656 C 254.789062 89.484375 257.332031 89.625 259.871094 89.777344 C 259.871094 89.78125 259.871094 89.785156 259.871094 89.789062 C 263.316406 89.921875 266.753906 90.144531 270.191406 90.347656 C 270.371094 90.386719 270.722656 90.34375 270.753906 90.582031 C 267.292969 97.40625 263.3125 103.980469 259.761719 110.761719 Z M 259.761719 110.761719 " fill-opacity="1" fill-rule="nonzero"/></g><path fill="#ffffff" d="M 218.558594 226.175781 C 221.398438 241.644531 243.59375 244.804688 251 231.113281 C 254.726562 224.722656 253.742188 216.132812 248.59375 210.789062 C 236.542969 198.222656 215.007812 208.867188 218.558594 226.175781 Z M 235.699219 227.148438 C 229.699219 226.976562 229.773438 218.171875 235.769531 218.054688 C 241.855469 218.28125 241.367188 227.203125 235.699219 227.148438 Z M 235.699219 227.148438 " fill-opacity="1" fill-rule="nonzero"/><path fill="#ffffff" d="M 164.292969 208.304688 C 154.367188 201.324219 139.449219 207.164062 137.304688 219.21875 C 134.304688 234.636719 151.285156 245.371094 164.234375 236.972656 C 174.300781 230.746094 174.296875 214.628906 164.292969 208.304688 Z M 154.269531 227.144531 C 149.582031 227.183594 147.914062 219.949219 153.117188 218.25 C 159.730469 216.480469 161.125 227.058594 154.269531 227.144531 Z M 154.269531 227.144531 " fill-opacity="1" fill-rule="nonzero"/><g fill="#fcc509" fill-opacity="0.4"><g transform="translate(5.481078, 363.262336)"><g><path d="M 34.90625 0 L 18.265625 0 L 18.265625 -51.546875 L 1.90625 -51.546875 L 1.90625 -66.5625 L 51.0625 -66.5625 L 51.0625 -51.546875 L 34.90625 -51.546875 Z M 34.90625 0 "/></g></g></g><g fill="#fcc509" fill-opacity="0.4"><g transform="translate(54.728234, 363.262336)"><g><path d="M 29.28125 -50.6875 C 33.976562 -50.6875 38.335938 -49.609375 42.359375 -47.453125 C 46.390625 -45.296875 49.625 -42.265625 52.0625 -38.359375 C 54.5 -34.460938 55.71875 -30.046875 55.71875 -25.109375 C 55.71875 -23.648438 55.5625 -21.96875 55.25 -20.0625 L 18.546875 -20.0625 C 19.179688 -17.082031 20.445312 -14.769531 22.34375 -13.125 C 24.25 -11.476562 26.628906 -10.65625 29.484375 -10.65625 C 31.765625 -10.65625 33.679688 -11.066406 35.234375 -11.890625 C 36.785156 -12.710938 38.097656 -13.945312 39.171875 -15.59375 L 54.296875 -15.59375 C 52.460938 -10.582031 49.390625 -6.523438 45.078125 -3.421875 C 40.765625 -0.316406 35.5 1.234375 29.28125 1.234375 C 24.53125 1.234375 20.125 0.15625 16.0625 -2 C 12.007812 -4.15625 8.757812 -7.195312 6.3125 -11.125 C 3.875 -15.050781 2.65625 -19.582031 2.65625 -24.71875 C 2.65625 -29.851562 3.875 -34.382812 6.3125 -38.3125 C 8.757812 -42.25 12.007812 -45.296875 16.0625 -47.453125 C 20.125 -49.609375 24.53125 -50.6875 29.28125 -50.6875 Z M 29.28125 -38.703125 C 26.625 -38.703125 24.359375 -37.957031 22.484375 -36.46875 C 20.617188 -34.976562 19.335938 -32.804688 18.640625 -29.953125 L 40.125 -29.953125 C 39.625 -32.554688 38.453125 -34.664062 36.609375 -36.28125 C 34.773438 -37.894531 32.332031 -38.703125 29.28125 -38.703125 Z M 29.28125 -38.703125 "/></g></g></g><g fill="#fcc509" fill-opacity="0.4"><g transform="translate(109.394612, 363.262336)"><g><path d="M 39.84375 -50.015625 L 39.84375 -35.953125 L 33.46875 -35.953125 C 30.238281 -35.953125 27.5 -34.859375 25.25 -32.671875 C 23 -30.484375 21.875 -27.675781 21.875 -24.25 L 21.875 0 L 5.984375 0 L 5.984375 -49.453125 L 20.734375 -49.453125 L 20.734375 -43.75 C 24.535156 -47.925781 29.609375 -50.015625 35.953125 -50.015625 Z M 39.84375 -50.015625 "/></g></g></g><g fill="#fcc509" fill-opacity="0.4"><g transform="translate(146.472274, 363.262336)"><g><path d="M 65.140625 -50.6875 C 68.816406 -50.6875 72.03125 -49.828125 74.78125 -48.109375 C 77.539062 -46.398438 79.679688 -43.992188 81.203125 -40.890625 C 82.734375 -37.785156 83.5 -34.203125 83.5 -30.140625 L 83.5 0 L 67.609375 0 L 67.609375 -27.390625 C 67.609375 -30.242188 66.957031 -32.476562 65.65625 -34.09375 C 64.363281 -35.707031 62.609375 -36.515625 60.390625 -36.515625 C 58.234375 -36.515625 56.410156 -35.691406 54.921875 -34.046875 C 53.429688 -32.398438 52.6875 -30.179688 52.6875 -27.390625 L 52.6875 0 L 36.796875 0 L 36.796875 -27.390625 C 36.796875 -30.242188 36.144531 -32.476562 34.84375 -34.09375 C 33.550781 -35.707031 31.796875 -36.515625 29.578125 -36.515625 C 27.421875 -36.515625 25.597656 -35.691406 24.109375 -34.046875 C 22.617188 -32.398438 21.875 -30.179688 21.875 -27.390625 L 21.875 0 L 5.984375 0 L 5.984375 -49.453125 L 20.4375 -49.453125 L 20.4375 -44.40625 C 24.1875 -48.59375 28.816406 -50.6875 34.328125 -50.6875 C 37.367188 -50.6875 40.203125 -49.957031 42.828125 -48.5 C 45.460938 -47.039062 47.507812 -45.078125 48.96875 -42.609375 C 53.34375 -47.992188 58.734375 -50.6875 65.140625 -50.6875 Z M 65.140625 -50.6875 "/></g></g></g><g fill="#fcc509" fill-opacity="0.4"><g transform="translate(231.847621, 363.262336)"><g><path d="M 42.703125 -49.453125 L 57.34375 -49.453125 L 57.34375 0 L 42.703125 0 L 42.703125 -4.84375 C 39.023438 -0.789062 33.859375 1.234375 27.203125 1.234375 C 23.140625 1.234375 19.238281 0.171875 15.5 -1.953125 C 11.757812 -4.078125 8.71875 -7.117188 6.375 -11.078125 C 4.03125 -15.035156 2.859375 -19.582031 2.859375 -24.71875 C 2.859375 -29.851562 4.03125 -34.398438 6.375 -38.359375 C 8.71875 -42.328125 11.757812 -45.375 15.5 -47.5 C 19.238281 -49.625 23.140625 -50.6875 27.203125 -50.6875 C 33.796875 -50.6875 38.960938 -48.65625 42.703125 -44.59375 Z M 30.4375 -12.84375 C 33.851562 -12.84375 36.6875 -13.96875 38.9375 -16.21875 C 41.1875 -18.46875 42.3125 -21.300781 42.3125 -24.71875 C 42.3125 -28.144531 41.1875 -30.984375 38.9375 -33.234375 C 36.6875 -35.484375 33.851562 -36.609375 30.4375 -36.609375 C 27.007812 -36.609375 24.171875 -35.484375 21.921875 -33.234375 C 19.671875 -30.984375 18.546875 -28.144531 18.546875 -24.71875 C 18.546875 -21.300781 19.671875 -18.46875 21.921875 -16.21875 C 24.171875 -13.96875 27.007812 -12.84375 30.4375 -12.84375 Z M 30.4375 -12.84375 "/></g></g></g><g fill="#fcc509" fill-opacity="0.4"><g transform="translate(291.552938, 363.262336)"><g><path d="M 39.84375 -50.015625 L 39.84375 -35.953125 L 33.46875 -35.953125 C 30.238281 -35.953125 27.5 -34.859375 25.25 -32.671875 C 23 -30.484375 21.875 -27.675781 21.875 -24.25 L 21.875 0 L 5.984375 0 L 5.984375 -49.453125 L 20.734375 -49.453125 L 20.734375 -43.75 C 24.535156 -47.925781 29.609375 -50.015625 35.953125 -50.015625 Z M 39.84375 -50.015625 "/></g></g></g><g fill="#fcc509" fill-opacity="0.4"><g transform="translate(328.63059, 363.262336)"><g><path d="M 36.890625 -35.46875 L 25.578125 -35.46875 L 25.578125 -21.59375 C 25.578125 -19.238281 26.226562 -17.394531 27.53125 -16.0625 C 28.832031 -14.738281 30.65625 -14.078125 33 -14.078125 L 36.890625 -14.078125 L 36.890625 0 L 28.140625 0 C 22.242188 0 17.695312 -1.644531 14.5 -4.9375 C 11.300781 -8.238281 9.703125 -12.804688 9.703125 -18.640625 L 9.703125 -35.46875 L 1.609375 -35.46875 L 1.609375 -49.453125 L 9.703125 -49.453125 L 9.703125 -62.578125 L 25.578125 -62.578125 L 25.578125 -49.453125 L 36.890625 -49.453125 Z M 36.890625 -35.46875 "/></g></g></g><g fill="#e52124" fill-opacity="1"><g transform="translate(5.481078, 363.262336)"><g><path d="M 34.90625 0 L 18.265625 0 L 18.265625 -51.546875 L 1.90625 -51.546875 L 1.90625 -66.5625 L 51.0625 -66.5625 L 51.0625 -51.546875 L 34.90625 -51.546875 Z M 34.90625 0 "/></g></g></g><g fill="#e52124" fill-opacity="1"><g transform="translate(54.728234, 363.262336)"><g><path d="M 29.28125 -50.6875 C 33.976562 -50.6875 38.335938 -49.609375 42.359375 -47.453125 C 46.390625 -45.296875 49.625 -42.265625 52.0625 -38.359375 C 54.5 -34.460938 55.71875 -30.046875 55.71875 -25.109375 C 55.71875 -23.648438 55.5625 -21.96875 55.25 -20.0625 L 18.546875 -20.0625 C 19.179688 -17.082031 20.445312 -14.769531 22.34375 -13.125 C 24.25 -11.476562 26.628906 -10.65625 29.484375 -10.65625 C 31.765625 -10.65625 33.679688 -11.066406 35.234375 -11.890625 C 36.785156 -12.710938 38.097656 -13.945312 39.171875 -15.59375 L 54.296875 -15.59375 C 52.460938 -10.582031 49.390625 -6.523438 45.078125 -3.421875 C 40.765625 -0.316406 35.5 1.234375 29.28125 1.234375 C 24.53125 1.234375 20.125 0.15625 16.0625 -2 C 12.007812 -4.15625 8.757812 -7.195312 6.3125 -11.125 C 3.875 -15.050781 2.65625 -19.582031 2.65625 -24.71875 C 2.65625 -29.851562 3.875 -34.382812 6.3125 -38.3125 C 8.757812 -42.25 12.007812 -45.296875 16.0625 -47.453125 C 20.125 -49.609375 24.53125 -50.6875 29.28125 -50.6875 Z M 29.28125 -38.703125 C 26.625 -38.703125 24.359375 -37.957031 22.484375 -36.46875 C 20.617188 -34.976562 19.335938 -32.804688 18.640625 -29.953125 L 40.125 -29.953125 C 39.625 -32.554688 38.453125 -34.664062 36.609375 -36.28125 C 34.773438 -37.894531 32.332031 -38.703125 29.28125 -38.703125 Z M 29.28125 -38.703125 "/></g></g></g><g fill="#e52124" fill-opacity="1"><g transform="translate(109.394612, 363.262336)"><g><path d="M 39.84375 -50.015625 L 39.84375 -35.953125 L 33.46875 -35.953125 C 30.238281 -35.953125 27.5 -34.859375 25.25 -32.671875 C 23 -30.484375 21.875 -27.675781 21.875 -24.25 L 21.875 0 L 5.984375 0 L 5.984375 -49.453125 L 20.734375 -49.453125 L 20.734375 -43.75 C 24.535156 -47.925781 29.609375 -50.015625 35.953125 -50.015625 Z M 39.84375 -50.015625 "/></g></g></g><g fill="#e52124" fill-opacity="1"><g transform="translate(146.472274, 363.262336)"><g><path d="M 65.140625 -50.6875 C 68.816406 -50.6875 72.03125 -49.828125 74.78125 -48.109375 C 77.539062 -46.398438 79.679688 -43.992188 81.203125 -40.890625 C 82.734375 -37.785156 83.5 -34.203125 83.5 -30.140625 L 83.5 0 L 67.609375 0 L 67.609375 -27.390625 C 67.609375 -30.242188 66.957031 -32.476562 65.65625 -34.09375 C 64.363281 -35.707031 62.609375 -36.515625 60.390625 -36.515625 C 58.234375 -36.515625 56.410156 -35.691406 54.921875 -34.046875 C 53.429688 -32.398438 52.6875 -30.179688 52.6875 -27.390625 L 52.6875 0 L 36.796875 0 L 36.796875 -27.390625 C 36.796875 -30.242188 36.144531 -32.476562 34.84375 -34.09375 C 33.550781 -35.707031 31.796875 -36.515625 29.578125 -36.515625 C 27.421875 -36.515625 25.597656 -35.691406 24.109375 -34.046875 C 22.617188 -32.398438 21.875 -30.179688 21.875 -27.390625 L 21.875 0 L 5.984375 0 L 5.984375 -49.453125 L 20.4375 -49.453125 L 20.4375 -44.40625 C 24.1875 -48.59375 28.816406 -50.6875 34.328125 -50.6875 C 37.367188 -50.6875 40.203125 -49.957031 42.828125 -48.5 C 45.460938 -47.039062 47.507812 -45.078125 48.96875 -42.609375 C 53.34375 -47.992188 58.734375 -50.6875 65.140625 -50.6875 Z M 65.140625 -50.6875 "/></g></g></g><g fill="#e52124" fill-opacity="1"><g transform="translate(231.847621, 363.262336)"><g><path d="M 42.703125 -49.453125 L 57.34375 -49.453125 L 57.34375 0 L 42.703125 0 L 42.703125 -4.84375 C 39.023438 -0.789062 33.859375 1.234375 27.203125 1.234375 C 23.140625 1.234375 19.238281 0.171875 15.5 -1.953125 C 11.757812 -4.078125 8.71875 -7.117188 6.375 -11.078125 C 4.03125 -15.035156 2.859375 -19.582031 2.859375 -24.71875 C 2.859375 -29.851562 4.03125 -34.398438 6.375 -38.359375 C 8.71875 -42.328125 11.757812 -45.375 15.5 -47.5 C 19.238281 -49.625 23.140625 -50.6875 27.203125 -50.6875 C 33.796875 -50.6875 38.960938 -48.65625 42.703125 -44.59375 Z M 30.4375 -12.84375 C 33.851562 -12.84375 36.6875 -13.96875 38.9375 -16.21875 C 41.1875 -18.46875 42.3125 -21.300781 42.3125 -24.71875 C 42.3125 -28.144531 41.1875 -30.984375 38.9375 -33.234375 C 36.6875 -35.484375 33.851562 -36.609375 30.4375 -36.609375 C 27.007812 -36.609375 24.171875 -35.484375 21.921875 -33.234375 C 19.671875 -30.984375 18.546875 -28.144531 18.546875 -24.71875 C 18.546875 -21.300781 19.671875 -18.46875 21.921875 -16.21875 C 24.171875 -13.96875 27.007812 -12.84375 30.4375 -12.84375 Z M 30.4375 -12.84375 "/></g></g></g><g fill="#e52124" fill-opacity="1"><g transform="translate(291.552938, 363.262336)"><g><path d="M 39.84375 -50.015625 L 39.84375 -35.953125 L 33.46875 -35.953125 C 30.238281 -35.953125 27.5 -34.859375 25.25 -32.671875 C 23 -30.484375 21.875 -27.675781 21.875 -24.25 L 21.875 0 L 5.984375 0 L 5.984375 -49.453125 L 20.734375 -49.453125 L 20.734375 -43.75 C 24.535156 -47.925781 29.609375 -50.015625 35.953125 -50.015625 Z M 39.84375 -50.015625 "/></g></g></g><g fill="#e52124" fill-opacity="1"><g transform="translate(328.63059, 363.262336)"><g><path d="M 36.890625 -35.46875 L 25.578125 -35.46875 L 25.578125 -21.59375 C 25.578125 -19.238281 26.226562 -17.394531 27.53125 -16.0625 C 28.832031 -14.738281 30.65625 -14.078125 33 -14.078125 L 36.890625 -14.078125 L 36.890625 0 L 28.140625 0 C 22.242188 0 17.695312 -1.644531 14.5 -4.9375 C 11.300781 -8.238281 9.703125 -12.804688 9.703125 -18.640625 L 9.703125 -35.46875 L 1.609375 -35.46875 L 1.609375 -49.453125 L 9.703125 -49.453125 L 9.703125 -62.578125 L 25.578125 -62.578125 L 25.578125 -49.453125 L 36.890625 -49.453125 Z M 36.890625 -35.46875 "/></g></g></g></svg>